<svg width="208" height="208" xmlns="http://www.w3.org/2000/svg" xmlns:xlink="http://www.w3.org/1999/xlink" overflow="hidden"><defs><clipPath id="clip0"><rect x="255" y="256" width="208" height="208"/></clipPath></defs><g clip-path="url(#clip0)" transform="translate(-255 -256)"><path d="M261.5 360.5C261.5 306.376 305.376 262.5 359.5 262.5 413.624 262.5 457.5 306.376 457.5 360.5 457.5 414.624 413.624 458.5 359.5 458.5 305.376 458.5 261.5 414.624 261.5 360.5Z" stroke="#FFB13F" stroke-width="10.6667" stroke-miterlimit="8" fill="none" fill-rule="evenodd"/><path d="M302 360C302 328.52 327.52 303 359 303 390.48 303 416 328.52 416 360 416 391.48 390.48 417 359 417 327.52 417 302 391.48 302 360Z" fill="#FFB13F" fill-rule="evenodd"/></g></svg>