<svg width="14" height="16" viewBox="0 0 14 16" fill="none" xmlns="http://www.w3.org/2000/svg">
<path d="M12.5 2H11V0.375C11 0.16875 10.8313 0 10.625 0H9.375C9.16875 0 9 0.16875 9 0.375V2H5V0.375C5 0.16875 4.83125 0 4.625 0H3.375C3.16875 0 3 0.16875 3 0.375V2H1.5C0.671875 2 0 2.67188 0 3.5V14.5C0 15.3281 0.671875 16 1.5 16H12.5C13.3281 16 14 15.3281 14 14.5V3.5C14 2.67188 13.3281 2 12.5 2ZM12.3125 14.5H1.6875C1.58438 14.5 1.5 14.4156 1.5 14.3125V5H12.5V14.3125C12.5 14.4156 12.4156 14.5 12.3125 14.5Z" fill="black"/>
<g clip-path="url(#clip0)">
<path d="M6.70104 7.17395L6.02084 8.46692L4.49896 8.67493C4.22604 8.71204 4.11667 9.02747 4.31459 9.20813L5.41563 10.214L5.15521 11.6349C5.10834 11.8917 5.39688 12.0841 5.63854 11.964L7 11.2931L8.36146 11.964C8.60313 12.0831 8.89167 11.8917 8.84479 11.6349L8.58438 10.214L9.68542 9.20813C9.88334 9.02747 9.77396 8.71204 9.50104 8.67493L7.97917 8.46692L7.29896 7.17395C7.17709 6.94348 6.82396 6.94055 6.70104 7.17395Z" fill="black"/>
</g>
<defs>
<clipPath id="clip0">
<rect width="6" height="5" fill="white" transform="translate(4 7)"/>
</clipPath>
</defs>
</svg>
