<svg width="580" height="426" xmlns="http://www.w3.org/2000/svg" xmlns:xlink="http://www.w3.org/1999/xlink" overflow="hidden"><defs><clipPath id="clip0"><rect x="344" y="71" width="580" height="426"/></clipPath></defs><g clip-path="url(#clip0)" transform="translate(-344 -71)"><path d="M349 284C349 169.125 442.125 76 557 76 671.875 76 765 169.125 765 284 765 398.875 671.875 492 557 492 442.125 492 349 398.875 349 284Z" stroke="#000000" stroke-width="8" stroke-linecap="round" stroke-linejoin="round" stroke-miterlimit="10" stroke-dasharray="56 32" fill="none" fill-rule="evenodd"/><path d="M615 322.5C615 228.888 683.948 153 769 153 854.052 153 923 228.888 923 322.5 923 416.112 854.052 492 769 492 683.948 492 615 416.112 615 322.5Z" fill="#FFFFFF" fill-rule="evenodd"/><path d="M462.5 258.5 566.921 362.921" stroke="#000000" stroke-width="31.3333" stroke-linecap="round" stroke-linejoin="round" stroke-miterlimit="10" fill="none" fill-rule="evenodd"/><path d="M0 0 217.578 227" stroke="#000000" stroke-width="31.3333" stroke-linecap="round" stroke-linejoin="round" stroke-miterlimit="10" fill="none" fill-rule="evenodd" transform="matrix(-1 0 0 1 785.078 136.5)"/><path d="M701.5 341.5 701.5 479.592" stroke="#000000" stroke-width="31.3333" stroke-linecap="round" stroke-linejoin="round" stroke-miterlimit="10" fill="none" fill-rule="evenodd"/><path d="M633.5 410.5 764.816 410.5" stroke="#000000" stroke-width="31.3333" stroke-linecap="round" stroke-linejoin="round" stroke-miterlimit="10" fill="none" fill-rule="evenodd"/></g></svg>